<!-- icon666.com - MILLIONS vector ICONS FREE --><svg id="Flat" viewBox="0 0 64 64" xmlns="http://www.w3.org/2000/svg" xmlns:xlink="http://www.w3.org/1999/xlink"><linearGradient id="linear-gradient" gradientUnits="userSpaceOnUse" x1="4" x2="60" y1="32" y2="32"><stop offset="0" stop-color="#7f00ff"></stop><stop offset="1" stop-color="#e100ff"></stop></linearGradient><path d="m55 11.71h-46a5.00824 5.00824 0 0 0 -5 5v4.56h56v-4.56a5.00824 5.00824 0 0 0 -5-5zm-43 5.83a1.00016 1.00016 0 0 1 0-2 1.00016 1.00016 0 0 1 0 2zm4 0a1.00016 1.00016 0 0 1 0-2 1.00016 1.00016 0 0 1 0 2zm4 0a1.00016 1.00016 0 0 1 0-2 1.00016 1.00016 0 0 1 0 2zm32 0h-8a1.0001 1.0001 0 0 1 0-2h8a1.0001 1.0001 0 0 1 0 2zm-48 29.75a5.00824 5.00824 0 0 0 5 5h46a5.00824 5.00824 0 0 0 5-5v-23.84h-56zm36.36-13.7a1.00125 1.00125 0 1 1 1.28-1.54l6 5a1.00347 1.00347 0 0 1 0 1.54l-6 5a.96989.96989 0 0 1 -.64.23.99011.99011 0 0 1 -.77-.36005 1.0102 1.0102 0 0 1 .13-1.41l5.08-4.23zm-13.14 8.61 8-10a.99954.99954 0 1 1 1.56 1.25l-8 10a1.02039 1.02039 0 0 1 -.78.37.96113.96113 0 0 1 -.62-.22.9815.9815 0 0 1 -.16-1.4zm-10.86-5.15 6-5a1.00125 1.00125 0 1 1 1.28 1.54l-5.08 4.23 5.08 4.23a1.0102 1.0102 0 0 1 .13 1.41.99011.99011 0 0 1 -.77.36.96989.96989 0 0 1 -.64-.23l-6-5a1.00347 1.00347 0 0 1 0-1.54z" fill="url(#linear-gradient)"></path></svg>